<?xml version="1.0" standalone="no"?>
<!DOCTYPE svg PUBLIC "-//W3C//DTD SVG 20010904//EN"
 "http://www.w3.org/TR/2001/REC-SVG-20010904/DTD/svg10.dtd">
<svg version="1.0" xmlns="http://www.w3.org/2000/svg"
 width="199.000000pt" height="199.000000pt" viewBox="0 0 199.000000 199.000000"
 preserveAspectRatio="xMidYMid meet">
<metadata>
Created by potrace 1.14, written by Peter Selinger 2001-2017
</metadata>
<g transform="translate(0.000000,199.000000) scale(0.100000,-0.100000)"
fill="#000000" stroke="none">
<path d="M820 1875 c-85 -36 -164 -69 -175 -74 -11 -5 -72 -30 -135 -56 -215
-89 -191 -69 -245 -197 -69 -164 -68 -163 -70 -168 -3 -8 -17 -42 -56 -132
-21 -49 -35 -88 -32 -88 3 0 1 -6 -5 -12 -6 -7 -22 -43 -37 -81 -20 -49 -25
-74 -19 -95 4 -15 7 -30 6 -34 -1 -5 3 -8 8 -8 6 0 10 -6 10 -14 0 -8 14 -44
30 -81 17 -37 30 -73 30 -81 0 -8 5 -14 12 -14 6 0 9 -2 6 -6 -5 -4 26 -83 77
-199 7 -16 27 -66 45 -110 29 -73 68 -125 95 -125 5 0 145 -57 312 -126 210
-88 308 -124 320 -119 10 5 23 9 28 11 11 2 439 179 470 194 11 5 49 21 84 34
60 24 95 52 85 68 -3 5 0 8 5 8 6 0 10 3 9 8 -1 6 8 34 29 82 3 8 7 17 8 20 2
5 20 49 38 90 6 14 11 27 12 30 1 3 9 23 19 45 10 22 27 63 38 90 11 28 25 61
31 75 6 14 11 27 12 30 3 9 22 53 40 95 10 22 18 49 18 60 0 11 -23 74 -52
139 -28 66 -51 125 -51 133 0 7 -4 13 -10 13 -5 0 -9 3 -8 8 1 4 -6 24 -15 46
-9 21 -17 40 -17 41 0 2 -10 25 -22 52 -11 26 -22 53 -24 58 -1 6 -18 47 -36
92 l-33 82 -80 35 c-44 19 -118 50 -165 69 -47 19 -161 67 -254 106 -93 39
-172 71 -175 71 -3 -1 -76 -30 -161 -65z m136 -45 c-1 -27 2 -50 6 -50 5 0 4
-8 -1 -18 -6 -10 -6 -24 -1 -32 5 -8 6 -19 2 -24 -10 -16 -10 -46 0 -46 5 0 5
-7 0 -16 -5 -9 -7 -25 -5 -35 4 -12 -1 -21 -13 -25 -59 -19 -83 -32 -119 -65
l-40 -37 -95 39 c-52 22 -104 44 -115 49 -11 5 -58 25 -104 44 l-85 34 40 17
c21 9 62 26 89 37 28 11 64 26 80 33 65 28 350 145 357 145 3 0 6 -22 4 -50z
m100 34 c22 -9 57 -24 79 -33 22 -10 60 -26 85 -36 25 -10 60 -24 78 -31 41
-18 78 -33 177 -74 44 -18 83 -36 87 -39 4 -4 -81 -44 -190 -89 -186 -77 -198
-81 -212 -64 -28 32 -85 70 -120 79 l-35 9 -1 147 c0 81 2 147 6 147 4 0 25
-7 46 -16z m-480 -343 l189 -79 0 -47 c0 -25 -4 -50 -10 -54 -5 -5 -54 -19
-108 -31 -98 -22 -99 -22 -120 -2 -12 11 -35 24 -52 29 -16 5 -30 14 -31 19 0
5 -3 16 -7 24 -10 26 -37 116 -41 136 -2 10 -9 32 -15 47 -13 34 -13 37 -3 37
5 0 94 -36 198 -79z m1000 44 c-9 -20 -15 -39 -15 -43 0 -4 -7 -23 -15 -42 -8
-19 -30 -78 -50 -130 l-36 -95 -37 -2 c-20 -1 -50 -11 -65 -23 -32 -24 -29
-25 -113 24 -36 21 -58 40 -55 48 2 7 4 41 5 76 0 60 1 64 30 77 96 43 342
144 353 144 9 1 9 -7 -2 -34z m-1241 -5 c-3 -5 -1 -11 4 -14 7 -5 22 -52 25
-81 1 -5 4 -14 8 -20 6 -10 30 -91 33 -110 1 -5 -7 -20 -18 -32 -11 -12 -20
-39 -21 -59 -2 -36 -6 -40 -125 -116 -117 -74 -144 -87 -125 -56 5 7 9 16 10
21 1 4 3 9 4 12 1 3 3 8 4 13 1 4 10 25 20 47 10 22 19 45 20 50 3 9 14 37 50
120 7 17 33 78 56 137 24 59 47 105 52 102 5 -3 6 -9 3 -14z m1343 -63 c18
-45 32 -85 30 -88 -2 -4 6 -16 16 -28 11 -12 16 -21 13 -21 -5 0 12 -44 50
-129 8 -18 16 -39 17 -45 1 -6 8 -21 14 -33 7 -13 9 -23 5 -23 -4 0 -3 -4 2
-8 6 -4 18 -26 27 -48 l15 -41 -56 14 c-31 8 -63 17 -71 20 -18 8 -15 7 -65
18 -51 11 -45 10 -77 18 -19 5 -28 14 -28 28 0 24 -39 99 -52 99 -10 0 -11 44
0 54 4 4 7 11 8 14 0 4 6 21 13 37 7 17 14 35 15 40 3 10 19 53 33 85 3 8 7
17 7 20 6 24 40 100 45 100 3 0 21 -37 39 -83z m-883 -231 c9 -18 31 -45 50
-60 34 -27 34 -29 20 -57 -9 -16 -13 -29 -10 -29 4 0 -1 -12 -9 -27 -23 -41
-54 -115 -61 -146 -4 -15 -11 -27 -16 -27 -5 0 -9 -6 -9 -12 0 -9 -18 -13 -54
-13 l-54 -1 -21 46 c-11 25 -20 49 -20 54 0 5 -3 12 -8 15 -10 6 -55 99 -51
103 2 2 -4 13 -13 26 -15 20 -14 25 5 65 l21 43 105 26 c58 14 106 27 107 27
1 1 9 -14 18 -33z m446 -63 c37 -20 65 -41 62 -46 -11 -18 9 -96 30 -118 l23
-24 -20 -50 c-11 -27 -23 -52 -26 -55 -4 -3 -10 -16 -14 -30 -9 -37 -33 -63
-50 -57 -12 5 -51 77 -60 112 -2 6 -10 26 -18 45 -22 52 -31 74 -33 86 -2 6
-14 34 -27 63 -14 28 -22 51 -17 51 4 0 20 14 36 30 15 17 32 30 37 30 5 0 39
-17 77 -37z m-832 -43 c10 -5 30 -11 46 -14 15 -3 28 -6 29 -8 9 -14 126 -260
126 -265 0 -3 -12 -17 -27 -32 -28 -26 -42 -28 -78 -11 -11 6 -101 43 -200 84
-161 66 -215 96 -172 96 9 0 17 3 19 8 4 10 197 132 209 132 5 0 9 5 9 10 0
13 16 13 39 0z m661 -52 c12 -27 23 -54 24 -61 1 -6 10 -27 19 -44 10 -18 17
-35 17 -38 0 -3 6 -21 14 -40 9 -20 15 -38 15 -41 0 -3 7 -16 15 -30 9 -13 14
-24 10 -24 -4 0 -1 -7 6 -15 8 -10 9 -15 1 -15 -6 0 -17 -12 -25 -27 l-14 -28
-128 2 c-71 1 -132 2 -136 2 -3 1 -12 18 -19 38 -6 20 -25 49 -41 63 l-29 27
52 129 c29 71 56 134 61 140 5 7 36 11 72 11 l64 0 22 -49z m712 -100 c54 -13
52 -26 -9 -47 -21 -7 -51 -19 -68 -26 -28 -13 -103 -45 -150 -65 -30 -12 -113
-46 -172 -69 -71 -28 -81 -14 -46 59 15 30 27 57 27 60 1 3 6 12 11 20 5 8 10
21 12 29 2 17 24 32 35 25 19 -12 80 11 109 41 l32 32 86 -24 c47 -13 107 -29
133 -35z m-1447 -151 l200 -83 1 -45 c0 -24 8 -60 17 -79 l18 -34 -118 -118
c-124 -124 -119 -122 -138 -68 -1 3 -8 19 -15 35 -7 17 -14 32 -15 35 -6 17
-18 48 -26 65 -5 11 -43 102 -84 203 -56 138 -70 182 -57 178 9 -4 107 -43
217 -89z m1481 -14 c-19 -45 -32 -84 -29 -87 4 -3 1 -6 -5 -6 -7 0 -11 -3 -10
-7 1 -5 -3 -19 -9 -33 -6 -14 -23 -54 -37 -90 -15 -36 -34 -79 -42 -97 -8 -17
-14 -34 -14 -38 0 -10 -40 -95 -45 -95 -3 0 -70 64 -150 143 -137 135 -145
145 -136 169 5 14 8 28 5 30 -2 3 20 15 48 27 359 151 453 187 456 177 1 -7
-13 -49 -32 -93z m-640 -173 c14 -19 20 -36 14 -38 -6 -2 -8 -8 -4 -13 3 -5 0
-9 -7 -9 -7 0 -10 -3 -6 -6 3 -3 -7 -33 -22 -67 -15 -34 -29 -66 -30 -72 -1
-5 -10 -28 -20 -50 -9 -22 -39 -93 -66 -158 -27 -64 -51 -117 -55 -117 -3 0
-16 28 -29 63 -13 34 -32 80 -41 102 -25 58 -38 90 -76 184 l-34 84 26 26 c15
14 34 44 44 66 l17 41 133 -1 133 0 23 -35z m274 -175 c79 -79 142 -146 140
-148 -10 -8 -523 -217 -547 -223 -22 -6 -24 -5 -14 12 17 30 54 117 58 139 2
10 9 23 16 27 6 4 8 8 3 8 -5 0 -3 7 4 15 7 8 9 15 6 15 -4 0 0 12 8 28 18 31
48 101 52 120 1 7 16 41 32 76 25 54 35 65 59 69 15 2 30 5 33 6 3 0 70 -64
150 -144z m-813 74 c6 -6 35 -12 65 -14 49 -2 54 -4 70 -35 19 -36 50 -108 54
-125 1 -5 21 -55 44 -110 23 -55 48 -116 55 -136 l13 -36 -76 32 c-108 44
-116 48 -127 51 -16 5 -346 144 -357 150 -12 7 212 233 233 233 8 1 20 -4 26
-10z"/>
</g>
</svg>
